<svg xmlns="http://www.w3.org/2000/svg" xmlns:xlink="http://www.w3.org/1999/xlink" viewBox="0 0 107.49 122.37"><defs><style>.cls-1,.cls-2{fill:none;}.cls-2{clip-rule:evenodd;}.cls-3{clip-path:url(#clip-path);}.cls-4{clip-path:url(#clip-path-2);}.cls-5{clip-path:url(#clip-path-3);}.cls-6{clip-path:url(#clip-path-4);}.cls-7{fill:#fff;}</style><clipPath id="clip-path"><rect class="cls-1" x="860" y="327" width="858" height="4"/></clipPath><clipPath id="clip-path-2"><path class="cls-2" d="M175-530H-227.68c-4.12,0-7.32,1.45-7.32,3.43v64.8c0,2,3.2,3.77,7.32,3.77H175.4c4.12,0,7.6-1.78,7.6-3.77v-64.8c0-2-3.48-3.43-7.6-3.43"/></clipPath><clipPath id="clip-path-3"><rect class="cls-1" x="3502" y="327" width="858" height="4"/></clipPath><clipPath id="clip-path-4"><rect class="cls-1" x="2170" y="327" width="858" height="4"/></clipPath></defs><title>icons</title><g id="Layer_4" data-name="Layer 4"><path class="cls-7" d="M56.56,13.31a8.12,8.12,0,0,0-6.48-.12L4.63,32.06h0a1.11,1.11,0,0,0-.67,1V82.82a7.1,7.1,0,0,0,3.47,6.1L52,115.44a1.4,1.4,0,0,0,.79.21h.12a.8.8,0,0,0,.42-.11L99.47,88.61A7.11,7.11,0,0,0,103,82.48V36.14a2.25,2.25,0,0,0-1.32-2.06ZM53.35,58.36l-17-9.3L84,27.79l16.2,7.46ZM23.28,44,72.67,22.8a1.07,1.07,0,0,0,.21-.13L82,26.86,35.24,47.74l-.15.08a.84.84,0,0,0-.35.7h0V86.9a.78.78,0,0,1-.4.69.8.8,0,0,1-.81,0l-7.44-4.4a5.69,5.69,0,0,1-2.81-4.91Zm27.44-29.3a6.47,6.47,0,0,1,5.14.1l15,6.92L22.49,42.55,6.14,33.25Zm1.77,99.09L8.28,87.49a5.49,5.49,0,0,1-2.65-4.67V34.88l16,9.09V78.28a7.41,7.41,0,0,0,3.62,6.35L32.68,89a2.47,2.47,0,0,0,3.73-2.13V51L52.49,59.8ZM98.63,87.17,54.16,113.09V59.82l47.17-23.25V82.48A5.46,5.46,0,0,1,98.63,87.17Z"/><path class="cls-7" d="M92.88,59.75a7,7,0,0,0-1,.74c-1.23,1.07-3,2.61-5,4.42V55.16l-3.33,2V67.89l-9.83,8.82V63l-3.33,2V79.71c-3,2.68-5.48,4.91-6.86,6.11l.21.35c2.3-1.89,4.49-3.68,6.65-5.43V91.27l3.33-2V78.05l9.83-7.94V83.44l3.33-2V67.39c1.72-1.41,3.53-2.89,5.44-4.47a5.12,5.12,0,0,0,1.54-1.86,1.8,1.8,0,0,0,.14-1C94,59.73,93.76,59.23,92.88,59.75Zm-.23,1.91L89.32,64.5c-.2.17-.39.17-.42,0l0-.09a.84.84,0,0,1,.31-.63l3.33-2.84c.2-.17.39-.17.42,0L93,61A.81.81,0,0,1,92.65,61.66Z"/></g></svg>