<svg xmlns="http://www.w3.org/2000/svg" xmlns:xlink="http://www.w3.org/1999/xlink" viewBox="0 0 107.49 122.37"><defs><style>.cls-1,.cls-2{fill:none;}.cls-2{clip-rule:evenodd;}.cls-3{clip-path:url(#clip-path);}.cls-4{clip-path:url(#clip-path-2);}.cls-5{fill:#fff;}.cls-6{clip-path:url(#clip-path-3);}.cls-7{clip-path:url(#clip-path-4);}</style><clipPath id="clip-path"><rect class="cls-1" x="984" y="327" width="858" height="4"/></clipPath><clipPath id="clip-path-2"><path class="cls-2" d="M299-530H-103.68c-4.12,0-7.32,1.45-7.32,3.43v64.8c0,2,3.2,3.77,7.32,3.77H299.4c4.12,0,7.6-1.78,7.6-3.77v-64.8c0-2-3.48-3.43-7.6-3.43"/></clipPath><clipPath id="clip-path-3"><rect class="cls-1" x="3626" y="327" width="858" height="4"/></clipPath><clipPath id="clip-path-4"><rect class="cls-1" x="2294" y="327" width="858" height="4"/></clipPath></defs><title>icons</title><g id="Layer_2" data-name="Layer 2"><path class="cls-5" d="M52.32,47.72h1.41c2.58,0,6-2,8.77-5.15,3-3.36,4.75-7.41,4.75-10.85V26.59a18.72,18.72,0,0,0-3.59-11.45,11.82,11.82,0,0,0-9.47-4.8H51.86a11.8,11.8,0,0,0-9.47,4.8A18.66,18.66,0,0,0,38.8,26.59v5.13c0,3.44,1.77,7.49,4.75,10.85C46.37,45.75,49.73,47.72,52.32,47.72ZM39.57,26.59a17.94,17.94,0,0,1,3.43-11,11.06,11.06,0,0,1,8.86-4.49h2.33a11.08,11.08,0,0,1,8.86,4.49,18,18,0,0,1,3.42,11v5.13c0,3.26-1.7,7.12-4.55,10.32-2.64,3-5.86,4.9-8.19,4.9H52.32c-2.34,0-5.56-1.92-8.2-4.9-2.85-3.2-4.55-7.06-4.55-10.32Z"/><path class="cls-5" d="M77.1,68.76c.08-1,.13-2,.16-2.91v-.07l26.74-3V53.2L67.21,49.89v0l-.1,0a23.46,23.46,0,0,0-5.24-.71,6.12,6.12,0,0,0-3,.52l-.25.15-.08.27s-1.21,3.49-4.4,3.74h-.76c-3.19-.25-4.35-3.6-4.4-3.74l-.09-.27-.24-.15a6,6,0,0,0-3-.52,23.15,23.15,0,0,0-5.11.68h0L3.78,53.2v9.61l25.47,2.81v.08a31.84,31.84,0,0,0,.58,4.4v0l0,0a10.81,10.81,0,0,0-1.43,4.26l0,.21v.05a8.67,8.67,0,0,0,0,1.25l0,7.95c0,4.87,3.88,9.58,11.62,14l.19.11-.21,0c-1.64.45-3.32.89-5,1.3h0a1,1,0,0,0-.29.07h0c-3.44.85-5.62,1.29-5.64,1.3a.82.82,0,0,0-.61.83v8.58a.9.9,0,0,0,.27.65.7.7,0,0,0,.47.19h.13a190.91,190.91,0,0,0,24.39-6.91h.06A194,194,0,0,0,78.09,111h.13a.7.7,0,0,0,.47-.19.87.87,0,0,0,.28-.65v-8.58a.81.81,0,0,0-.61-.83s-4.66-1-11-2.68l-.21,0,.18-.11C75.05,93.5,79,88.83,79,84l0-8a9.4,9.4,0,0,0,0-1.3v0l0-.23a11.14,11.14,0,0,0-1.88-5l0,0v-.09ZM29.81,83.89l0-3.39.16.26a17.9,17.9,0,0,0,3.08,3.65l0,0v0a1.11,1.11,0,0,0,0,.17v3.42a.75.75,0,1,0,1.49,0V85.71l.15.11a36.84,36.84,0,0,0,3.59,2.51l0,0V91.5a.75.75,0,1,0,1.48,0V89.25l.14.07c1.19.69,2.49,1.37,3.88,2l0,0V94.6a.75.75,0,1,0,1.49,0V92.09l.13.06c1.72.79,3.57,1.57,5.51,2.32l.22.09-.23.08c-2.69.93-5.58,1.84-8.6,2.71h0l0,0C34,92.93,29.78,88.41,29.81,83.89Zm0-8V74.7a8,8,0,0,1,.4-1.86l.1-.29.07.3c.26,1.12.57,2.33.92,3.59,0,0,.91,3.11,1,3.4.17.56.34,1.12.52,1.69l-.25.14c-.32-.38-.62-.76-.89-1.13h0a9.22,9.22,0,0,1-1.58-3.11c0-.14-.08-.27-.11-.4a8,8,0,0,1-.17-1.14ZM67.4,103.53a.81.81,0,0,0,.75-.85V100l.11,0c1.37.37,2.77.73,4.16,1.07l.06,0v3.12a.75.75,0,1,0,1.49,0v-2.76l.11,0c1.48.35,2.63.6,3.34.75l.06,0v6.86l-.11,0a198.16,198.16,0,0,1-21.07-5.88l-.22-.08.22-.09A89.72,89.72,0,0,0,65,99.16l0,0h0l1.48.42.07,0v3.09A.8.8,0,0,0,67.4,103.53ZM77.5,84c0,6.26-8.37,12.62-24.08,18.38A192,192,0,0,1,30,109.1l-.1,0v-6.86h.07c.87-.19,2.3-.5,4.16-1l.1,0v2.33a.75.75,0,1,0,1.49,0v-2.69l.07,0c1.38-.34,2.78-.71,4.16-1.08l.11,0v2.27a.75.75,0,1,0,1.49,0V99.38l.06,0c1.32-.37,2.62-.75,3.89-1.14l.11,0v2.32a.75.75,0,1,0,1.49,0V97.73l.06,0c1.41-.44,2.81-.91,4.16-1.38l.12,0v2.35a.75.75,0,1,0,1.49,0V95.77l0,0c1.33-.48,2.64-1,3.89-1.47l.12,0v2.24a.75.75,0,1,0,1.48,0V93.63l.06,0c1.44-.6,2.84-1.23,4.16-1.85l.12-.06V94a.75.75,0,1,0,1.49,0V91l0,0c1.39-.71,2.7-1.42,3.88-2.13l.13-.08v2.14a.75.75,0,1,0,1.49,0V87.81l0,0a35.07,35.07,0,0,0,3.6-2.67l.14-.12v2.47a.75.75,0,1,0,1.49,0V84a.87.87,0,0,0-.06-.32v0l0,0a16.59,16.59,0,0,0,2.29-2.86l.16-.26Zm0-9.24v1.17a7.5,7.5,0,0,1-.2,1.23h0a11.46,11.46,0,0,1-1.09,2.48h0l0,0h0L76,80a4.28,4.28,0,0,1-.34.57l-.28-.12,0-.16c0-.17.07-.35.11-.52s.47-2.45.66-3.42c.22-1.28.4-2.57.56-4l0-.27.19.34h0A7.76,7.76,0,0,1,77.48,74.74ZM76,64.61l-.25,0v.26c0,1.32-.09,2.73-.21,4.21a101,101,0,0,1-2.38,14.14v0l0,0C69.2,86.9,62.66,90.39,53.7,93.68h-.06c-8.15-3-14.33-6.2-18.36-9.48l-.13-.1.13,0-.1-.3C34.43,81.52,30.7,70.07,30.77,65v-.68l-.27,0-.32-.07h0l-.56-.07-.34,0v0L28.15,64,5.31,61.45V54.59l27.62-2.44,3.27-.31h.08c2.42-.24,4.16-.4,4.48-.41h0l.11,0a21.85,21.85,0,0,1,4.81-.65,7,7,0,0,1,1.95.22h0l0,0c.53,1.25,2.14,4.19,5.65,4.41h.94c3.46-.26,5-3.16,5.57-4.39l0-.05h0a7,7,0,0,1,2.22-.3,20.6,20.6,0,0,1,4.84.71l.23.06,35.24,3.16v6.86l-25,2.76-.25.08A9.24,9.24,0,0,1,76,64.61Z"/></g></svg>