<svg xmlns="http://www.w3.org/2000/svg" xmlns:xlink="http://www.w3.org/1999/xlink" viewBox="0 0 107.49 122.37"><defs><style>.cls-1,.cls-2{fill:none;}.cls-2{clip-rule:evenodd;}.cls-3{clip-path:url(#clip-path);}.cls-4{clip-path:url(#clip-path-2);}.cls-5{fill:#fff;}.cls-6{clip-path:url(#clip-path-3);}.cls-7{clip-path:url(#clip-path-4);}</style><clipPath id="clip-path"><rect class="cls-1" x="1108" y="327" width="858" height="4"/></clipPath><clipPath id="clip-path-2"><path class="cls-2" d="M423-530H20.32c-4.12,0-7.32,1.45-7.32,3.43v64.8c0,2,3.2,3.77,7.32,3.77H423.4c4.12,0,7.6-1.78,7.6-3.77v-64.8c0-2-3.48-3.43-7.6-3.43"/></clipPath><clipPath id="clip-path-3"><rect class="cls-1" x="3750" y="327" width="858" height="4"/></clipPath><clipPath id="clip-path-4"><rect class="cls-1" x="2418" y="327" width="858" height="4"/></clipPath></defs><title>icons</title><g id="Layer_2" data-name="Layer 2"><path class="cls-5" d="M95.11,7.87H33.59a3.79,3.79,0,0,0-3.15,1.4l-5.56,6.12.26.38h0l0,0,.6.88,5.79-6.38c.81-.9,1.21-.91,1.53-.91h62a2.16,2.16,0,0,1,2.16,2.16V24.1L93,23a1.31,1.31,0,0,1-.84-.67l-1.89-3.66a.89.89,0,0,0-.94-.48.91.91,0,0,0-.76.73L80.9,61.47,73,18.91a.9.9,0,0,0-1-.74.94.94,0,0,0-.73.5l-2.19,4a1.35,1.35,0,0,1-.72.61l-9.91,3.43A8.27,8.27,0,0,0,52.9,33.9l-1.55,20,1.38,2L54.43,34a6.74,6.74,0,0,1,4.51-5.85l9.91-3.44a2.82,2.82,0,0,0,1.56-1.32l1.37-2.5,8.1,43.46a1,1,0,0,0,1,.85h0a1,1,0,0,0,1-.86L89.75,21l1,2a2.83,2.83,0,0,0,1.82,1.45l4.65,1.19v77.61l-10.93,3.49a.77.77,0,0,1-.63-.07.76.76,0,0,1-.38-.51L81.86,90.14a1,1,0,0,0-1-.77h0a1,1,0,0,0-1,.76l-3.7,16a.82.82,0,0,1-.4.51.76.76,0,0,1-.64,0l-13.62-5.06a1.8,1.8,0,0,1-1.16-2L65.6,68.25a3.09,3.09,0,0,0,0-1l-2-12.18a.91.91,0,0,0-.9-.75h0a.91.91,0,0,0-.9.75l-2.69,15.3L60,74.27l2.69-15.33,1.44,8.6a1.85,1.85,0,0,1,0,.47l-5.17,31.4a3.35,3.35,0,0,0,2.13,3.67l13.63,5a2.3,2.3,0,0,0,1.9-.13,2.35,2.35,0,0,0,1.16-1.52l3.14-13.6,3,13.64a2.31,2.31,0,0,0,1.1,1.52,2.31,2.31,0,0,0,1.86.2l10.47-3.34v5.49a2.16,2.16,0,0,1-2.16,2.16H18.55a2.15,2.15,0,0,1-2.16-2.16V29.33L14.86,27.1v83.29a3.69,3.69,0,0,0,3.69,3.69H95.11a3.69,3.69,0,0,0,3.69-3.69v-6.54h0V11.56A3.69,3.69,0,0,0,95.11,7.87Z"/><path class="cls-5" d="M57.46,68l0,0-2.68-6.83a5.55,5.55,0,0,0-.32-.89A5.07,5.07,0,0,0,54,59.4l-29.62-43h0L18.68,8.11a4.4,4.4,0,0,0-.54-.67,5.43,5.43,0,0,0-.84-.75c-.15-.11-.31-.21-.47-.31a6.34,6.34,0,0,0-1-.46A5.62,5.62,0,0,0,15,5.7l-.27,0h-.1l-.18,0h-.9l-.23,0h0l-.25,0-.08,0-.18,0-.08,0-.2,0-.05,0-.24.07-.06,0L11.94,6l-.07,0-.18.07-.06,0-.23.1,0,0-.19.1-.08,0-.16.1-.06,0-.22.14L9.5,7.41A6.07,6.07,0,0,0,8.06,8.83a6.52,6.52,0,0,0-.43.72,4.31,4.31,0,0,0-.32.77,5.54,5.54,0,0,0-.21.8A7.53,7.53,0,0,0,7,12v.28a5.07,5.07,0,0,0,0,.55,2.36,2.36,0,0,0,0,.28,5.35,5.35,0,0,0,.11.55A5.65,5.65,0,0,0,8,15.45L13.7,23.7,43.12,66.46A5.27,5.27,0,0,0,44.72,68l5.2,4.33h0l.57.49,0,0a1.1,1.1,0,0,0,.58.16.78.78,0,0,0,.22,0l6-4.1A1.16,1.16,0,0,0,57.46,68Zm-6.31,3.36-5.54-4.62,0,0a3.79,3.79,0,0,1-1.18-1.11l-35.1-51a4.35,4.35,0,0,1-.73-1.93c0-.14,0-.28,0-.42a3.93,3.93,0,0,1,.07-.83A4.21,4.21,0,0,1,9.73,9.21a1,1,0,0,1,.15-.14,2.08,2.08,0,0,1,.32-.27,1.09,1.09,0,0,1,.17-.13l1.15-.79A4.26,4.26,0,0,1,17.42,9l35.3,51.3a3.77,3.77,0,0,1,.56,1.26v0l2.57,6.53Z"/></g></svg>

